<svg width="756" height="301" viewBox="0 0 756 301" fill="none" xmlns="http://www.w3.org/2000/svg">
<g clip-path="url(#clip0_14_69)">
<path d="M333.098 101.099H343.578V123.809H361.518V101.099H371.998V156.679H361.518V133.809H343.578V156.679H333.098V101.099Z" fill="#F3F0E0"/>
<path d="M409.798 144.769H390.898L388.198 156.679H377.238L390.498 101.099H410.188L423.448 156.679H412.488L409.788 144.769H409.798ZM393.118 134.769H407.488L401.058 106.349H399.628L393.118 134.769Z" fill="#F3F0E0"/>
<path d="M448.298 148.269C450.308 148.269 451.958 147.969 453.258 147.359C454.558 146.749 455.558 145.929 456.278 144.899C456.988 143.869 457.478 142.679 457.748 141.329C458.008 139.979 458.148 138.589 458.148 137.159V135.729H468.628V137.159C468.628 143.779 466.898 148.869 463.428 152.439C459.958 156.009 454.918 157.799 448.308 157.799C441.698 157.799 436.928 155.869 433.228 151.999C429.518 148.139 427.668 142.499 427.668 135.089V122.699C427.668 119.149 428.148 115.969 429.098 113.129C430.048 110.299 431.428 107.919 433.228 105.979C435.028 104.049 437.198 102.569 439.738 101.529C442.278 100.499 445.138 99.979 448.308 99.979C451.478 99.979 454.498 100.459 457.038 101.409C459.578 102.359 461.708 103.739 463.428 105.539C465.148 107.339 466.448 109.509 467.318 112.049C468.188 114.589 468.628 117.449 468.628 120.619V122.049H458.148V120.619C458.148 119.299 457.988 117.969 457.668 116.649C457.348 115.329 456.818 114.139 456.078 113.079C455.338 112.019 454.328 111.159 453.058 110.499C451.788 109.839 450.198 109.509 448.298 109.509C446.548 109.509 445.038 109.839 443.768 110.499C442.498 111.159 441.438 112.059 440.588 113.199C439.738 114.339 439.118 115.659 438.718 117.169C438.318 118.679 438.118 120.249 438.118 121.889V135.859C438.118 137.659 438.308 139.309 438.678 140.819C439.048 142.329 439.628 143.639 440.428 144.749C441.228 145.859 442.268 146.719 443.568 147.329C444.868 147.939 446.438 148.239 448.288 148.239L448.298 148.269Z" fill="#F3F0E0"/>
<path d="M488.238 156.679H477.758V101.099H488.238V123.889H490.538L505.228 101.099H517.058V101.579L499.908 128.179V129.609L518.008 156.209V156.689H505.698L490.538 133.899H488.238V156.689V156.679Z" fill="#F3F0E0"/>
<path d="M523.728 101.099H563.748V111.099H548.978V156.669H538.498V111.099H523.728V101.099Z" fill="#F3F0E0"/>
<path d="M571.048 122.699C571.048 115.499 572.858 109.919 576.488 105.949C580.108 101.979 585.128 99.9893 591.538 99.9893C597.948 99.9893 602.958 101.969 606.588 105.949C610.208 109.919 612.028 115.509 612.028 122.699V135.089C612.028 142.499 610.218 148.139 606.588 151.999C602.958 155.859 597.948 157.799 591.538 157.799C585.128 157.799 580.118 155.869 576.488 151.999C572.858 148.139 571.048 142.499 571.048 135.089V122.699ZM591.538 148.269C593.448 148.269 595.028 147.969 596.298 147.359C597.568 146.749 598.598 145.889 599.398 144.779C600.198 143.669 600.748 142.349 601.068 140.809C601.388 139.279 601.548 137.579 601.548 135.729V122.069C601.548 120.319 601.358 118.679 600.988 117.149C600.618 115.619 600.038 114.289 599.238 113.179C598.448 112.069 597.408 111.179 596.138 110.519C594.868 109.859 593.328 109.529 591.538 109.529C589.748 109.529 588.198 109.859 586.938 110.519C585.668 111.179 584.638 112.069 583.838 113.179C583.038 114.289 582.458 115.609 582.088 117.149C581.718 118.689 581.528 120.329 581.528 122.069V135.729C581.528 137.579 581.688 139.279 582.008 140.809C582.328 142.349 582.878 143.669 583.678 144.779C584.468 145.889 585.508 146.749 586.778 147.359C588.048 147.969 589.638 148.269 591.538 148.269Z" fill="#F3F0E0"/>
<path d="M618.688 146.679H623.928V111.109H618.688V101.109H643.068C645.718 101.109 648.058 101.479 650.098 102.219C652.138 102.959 653.858 103.969 655.258 105.239C656.658 106.509 657.718 108.029 658.438 109.809C659.158 111.579 659.508 113.499 659.508 115.569V116.519C659.508 119.699 658.618 122.239 656.848 124.139C655.078 126.049 652.838 127.369 650.138 128.109V129.539C652.838 130.279 655.068 131.619 656.848 133.549C658.618 135.479 659.508 138.039 659.508 141.209V142.159C659.508 144.219 659.148 146.139 658.438 147.919C657.728 149.689 656.668 151.229 655.258 152.519C653.858 153.819 652.138 154.839 650.098 155.579C648.058 156.319 645.718 156.689 643.068 156.689H618.688V146.689V146.679ZM634.408 123.809H642.028C644.248 123.809 646.048 123.349 647.428 122.419C648.808 121.489 649.488 119.919 649.488 117.699V117.219C649.488 114.999 648.798 113.419 647.428 112.499C646.048 111.569 644.248 111.109 642.028 111.109H634.408V123.809ZM634.408 146.679H642.028C644.248 146.679 646.048 146.199 647.428 145.249C648.808 144.299 649.488 142.709 649.488 140.489V140.009C649.488 137.789 648.798 136.199 647.428 135.249C646.048 134.299 644.248 133.819 642.028 133.819H634.408V146.679Z" fill="#F3F0E0"/>
<path d="M669.338 101.099H704.428V111.099H679.818V123.799H703.478V133.799H679.818V146.659H705.388V156.659H669.338V101.079V101.099Z" fill="#F3F0E0"/>
<path d="M753.738 156.679H743.258V140.009C743.258 138.739 742.928 137.709 742.268 136.909C741.608 136.119 740.508 135.719 738.968 135.719H726.898V156.679H716.418V101.099H737.698C740.558 101.099 743.068 101.499 745.238 102.289C747.408 103.079 749.218 104.179 750.678 105.589C752.128 106.989 753.248 108.619 754.008 110.469C754.778 112.319 755.158 114.309 755.158 116.429V118.339C755.158 120.619 754.548 122.749 753.328 124.729C752.108 126.719 750.228 128.239 747.688 129.299V130.729C749.538 130.939 751.008 131.659 752.098 132.869C753.178 134.089 753.728 135.619 753.728 137.469V156.679H753.738ZM726.908 125.719H736.908C739.448 125.719 741.378 125.119 742.708 123.929C744.028 122.739 744.688 121.059 744.688 118.889V117.939C744.688 116.089 744.028 114.489 742.708 113.139C741.388 111.789 739.448 111.119 736.908 111.119H726.908V125.729V125.719Z" fill="#F3F0E0"/>
<path d="M333.098 176.529H368.668V186.529H343.578V199.229H368.188V209.229H343.578V232.099H333.098V176.519V176.529Z" fill="#F3F0E0"/>
<path d="M380.418 176.529H415.508V186.529H390.898V199.229H414.558V209.229H390.898V222.089H416.468V232.089H380.418V176.509V176.529Z" fill="#F3F0E0"/>
<path d="M455.528 193.519C455.528 191.299 454.668 189.369 452.948 187.719C451.228 186.079 448.808 185.259 445.688 185.259C443.038 185.259 440.948 185.799 439.418 186.889C437.878 187.979 437.118 189.439 437.118 191.299C437.118 192.249 437.308 193.109 437.678 193.879C438.048 194.649 438.698 195.339 439.628 195.939C440.558 196.549 441.768 197.089 443.278 197.569C444.788 198.049 446.708 198.499 449.038 198.919C454.858 199.979 459.308 201.749 462.378 204.239C465.448 206.729 466.978 210.409 466.978 215.279V216.229C466.978 218.819 466.518 221.169 465.588 223.259C464.658 225.349 463.328 227.139 461.578 228.619C459.828 230.099 457.718 231.239 455.228 232.029C452.738 232.819 449.938 233.219 446.808 233.219C443.158 233.219 439.938 232.699 437.158 231.669C434.378 230.639 432.068 229.209 430.208 227.379C428.358 225.549 426.948 223.409 425.998 220.949C425.048 218.489 424.568 215.799 424.568 212.889V210.509H435.048V212.419C435.048 215.759 436.018 218.419 437.948 220.399C439.878 222.379 442.888 223.379 446.958 223.379C450.138 223.379 452.488 222.689 454.028 221.319C455.558 219.939 456.328 218.299 456.328 216.399C456.328 215.499 456.168 214.639 455.848 213.819C455.528 212.999 454.978 212.259 454.178 211.599C453.388 210.939 452.298 210.339 450.918 209.809C449.538 209.279 447.798 208.829 445.678 208.459C442.868 207.979 440.308 207.359 437.978 206.589C435.648 205.819 433.628 204.799 431.908 203.529C430.188 202.259 428.848 200.669 427.898 198.769C426.948 196.859 426.468 194.539 426.468 191.779V191.299C426.468 189.019 426.928 186.919 427.858 184.989C428.788 183.059 430.078 181.379 431.748 179.949C433.418 178.519 435.428 177.409 437.778 176.609C440.128 175.819 442.768 175.419 445.678 175.419C448.958 175.419 451.868 175.879 454.408 176.809C456.948 177.739 459.078 178.989 460.798 180.579C462.518 182.169 463.818 183.989 464.688 186.059C465.558 188.129 465.998 190.299 465.998 192.569V195.429H455.518V193.519H455.528Z" fill="#F3F0E0"/>
<path d="M473.788 176.529H513.808V186.529H499.038V232.099H488.558V186.529H473.788V176.529Z" fill="#F3F0E0"/>
<path d="M135.168 199.869V67.5391H102.088V100.629H68.4478V133.709H102.088V199.869H68.4478V232.949H167.698V199.869H135.168Z" fill="#F3F0E0"/>
<path d="M233.748 199.929V100.679H200.668V133.769H167.588V166.849H200.668V233.009H233.748H266.828V199.929H233.748Z" fill="#F3F0E0"/>
<path d="M68.6677 300.279L34.8177 266.979V35.0091H266.788L300.638 68.3091V0.349121H0.637695V300.349L68.6677 300.279Z" fill="#F3F0E0"/>
</g>
<defs>
<clipPath id="clip0_14_69">
<rect width="754.53" height="300" fill="white" transform="translate(0.637695 0.349121)"/>
</clipPath>
</defs>
</svg>
